#N canvas 552 295 450 300 10;
#X obj 25 77 osc~ 220;
#X obj 26 105 +~, f 2;
#X obj 26 180 *~;
#X obj 25 216 dac~;
#X obj 113 26 r freq;
#X floatatom 113 51 5 0 0 0 - - -;
#X obj 113 71 osc~;
#X obj 25 135 osc~;
#X obj 113 92 *~;
#X obj 192 51 r index;
#X floatatom 192 79 5 0 0 0 - - -;
#X obj 78 117 r vol;
#X obj 78 167 line~;
#X msg 78 142 \$1 50;
#X connect 0 0 1 0;
#X connect 1 0 7 0;
#X connect 2 0 3 0;
#X connect 2 0 3 1;
#X connect 4 0 5 0;
#X connect 5 0 6 0;
#X connect 6 0 8 0;
#X connect 7 0 2 0;
#X connect 8 0 1 1;
#X connect 9 0 10 0;
#X connect 10 0 8 1;
#X connect 11 0 13 0;
#X connect 12 0 2 1;
#X connect 13 0 12 0;
