#N canvas 851 349 515 359 10;
#X obj 202 104 *~;
#X obj 202 82 osc~;
#X obj 202 39 r freq;
#X floatatom 202 61 5 0 0 0 - - -;
#X floatatom 267 91 5 0 0 0 - - -;
#X obj 267 42 r index;
#X obj 38 289 dac~;
#X obj 37 154 osc~;
#X obj 38 118 +~;
#X obj 38 26 loadbang;
#X obj 38 85 mtof;
#X obj 105 54 r midi;
#X obj 38 244 *~;
#X obj 201 231 vline~;
#X msg 38 57 40;
#X obj 201 151 r bang;
#X msg 237 192 \$1 50 \, 0 50 250;
#X connect 0 0 8 1;
#X connect 1 0 0 0;
#X connect 2 0 3 0;
#X connect 3 0 1 0;
#X connect 4 0 0 1;
#X connect 5 0 4 0;
#X connect 7 0 12 0;
#X connect 8 0 7 0;
#X connect 9 0 14 0;
#X connect 10 0 8 0;
#X connect 11 0 10 0;
#X connect 12 0 6 0;
#X connect 12 0 6 1;
#X connect 13 0 12 1;
#X connect 14 0 10 0;
#X connect 15 0 16 0;
#X connect 16 0 13 0;
