#N canvas 851 349 515 359 10;
#X obj 38 189 dac~;
#X obj 38 112 osc~;
#X obj 38 26 loadbang;
#X obj 38 85 mtof;
#X obj 105 54 r midi;
#X obj 38 144 *~;
#X obj 164 131 vline~;
#X obj 164 51 r bang;
#X msg 200 92 \$1 50 \, 0 50 250;
#X msg 38 57 60;
#X connect 1 0 5 0;
#X connect 2 0 9 0;
#X connect 3 0 1 0;
#X connect 4 0 3 0;
#X connect 5 0 0 0;
#X connect 5 0 0 1;
#X connect 6 0 5 1;
#X connect 7 0 8 0;
#X connect 8 0 6 0;
#X connect 9 0 3 0;
